<svg width="36" height="36" viewBox="0 0 36 36" fill="none" xmlns="http://www.w3.org/2000/svg">
<circle cx="18" cy="18" r="17" fill="#333333" stroke="white" stroke-width="2"/>
<path d="M8.56152 18.9238V17.8594H9.41602C9.7513 17.8594 10.0231 17.7682 10.2314 17.5859C10.4398 17.4036 10.5439 17.1676 10.5439 16.8779C10.5439 16.5882 10.4447 16.3587 10.2461 16.1895C10.0475 16.0169 9.76758 15.9307 9.40625 15.9307C9.06445 15.9307 8.78776 16.0234 8.57617 16.209C8.36458 16.3945 8.24902 16.6419 8.22949 16.9512H6.87207C6.89811 16.2969 7.14714 15.7744 7.61914 15.3838C8.09115 14.9932 8.70801 14.7979 9.46973 14.7979C10.2054 14.7979 10.7995 14.9704 11.252 15.3154C11.7077 15.6605 11.9355 16.1146 11.9355 16.6777C11.9355 17.1042 11.8021 17.4655 11.5352 17.7617C11.2682 18.0579 10.9167 18.2451 10.4805 18.3232V18.3525C11.0111 18.3981 11.431 18.5723 11.7402 18.875C12.0527 19.1745 12.209 19.5667 12.209 20.0518C12.209 20.68 11.9502 21.1878 11.4326 21.5752C10.9183 21.9626 10.2526 22.1562 9.43555 22.1562C8.64453 22.1562 8.00488 21.9577 7.5166 21.5605C7.03158 21.1634 6.77116 20.6377 6.73535 19.9834H8.14648C8.16927 20.2829 8.29622 20.5221 8.52734 20.7012C8.76172 20.8802 9.07096 20.9697 9.45508 20.9697C9.82292 20.9697 10.124 20.8753 10.3584 20.6865C10.5928 20.4977 10.71 20.2552 10.71 19.959C10.71 19.6367 10.596 19.3844 10.3682 19.2021C10.1403 19.0166 9.8278 18.9238 9.43066 18.9238H8.56152ZM14.9092 22V16.3066H14.8799L13.083 17.5469V16.2188L14.9043 14.9541H16.3691V22H14.9092ZM18.3174 22L21.3496 16.1553V16.126H17.7656V14.9541H22.8047V16.1406L19.8652 22H18.3174ZM27.0527 19.7979V21.9316H25.7734V19.7979H23.7812V18.5527H25.7734V16.4434H27.0527V18.5527H29.0449V19.7979H27.0527Z" fill="white"/>
</svg>
