<svg width="360" height="46" viewBox="0 0 360 46" fill="none" xmlns="http://www.w3.org/2000/svg">
<path d="M6.72813 25.2H13.7281V42H20.0001V2.8H13.7281V19.6H6.72813V2.8H0.568125V42H6.72813V25.2ZM30.6266 8.4H41.2666V2.8H24.4666V42H41.2666V36.4H30.6266V24.92H39.0826V19.32H30.6266V8.4ZM45.0838 42H61.3798V36.4H51.2438V2.8H45.0838V42ZM64.0603 42H80.3563V36.4H70.2203V2.8H64.0603V42ZM88.6929 11.816C88.6929 9.016 89.9249 7.952 91.8849 7.952C93.8449 7.952 95.0769 9.016 95.0769 11.816V32.984C95.0769 35.784 93.8449 36.848 91.8849 36.848C89.9249 36.848 88.6929 35.784 88.6929 32.984V11.816ZM82.5329 32.592C82.5329 38.864 85.8369 42.448 91.8849 42.448C97.9329 42.448 101.237 38.864 101.237 32.592V12.208C101.237 5.936 97.9329 2.352 91.8849 2.352C85.8369 2.352 82.5329 5.936 82.5329 12.208V32.592ZM129.656 34.888C133.968 34.888 140.576 30.8 140.576 17.024C140.576 7.952 136.824 0.559999 125.008 0.559999C111.176 0.559999 104.344 11.928 104.344 25.76C104.344 37.352 109.72 45.36 122.32 45.36C126.464 45.36 130.104 44.688 133.8 42.224L134.248 36.848C130.328 39.872 126.8 40.656 122.656 40.656C113.752 40.656 109.608 35.056 109.608 26.04C109.608 13.272 114.816 5.32 124.784 5.32C132.568 5.32 135.928 10.136 135.928 17.136C135.928 22.848 134.584 29.792 131.448 29.792C130.552 29.792 130.216 29.344 130.328 28.392L132.008 12.208H126.632L126.296 15.456C125.568 13.272 124.056 12.04 121.704 11.984C117.784 11.816 115.432 14.784 114.872 20.272L114.256 25.928C113.696 31.36 115.376 34.44 119.296 34.552C121.76 34.664 123.608 33.488 124.728 31.192C124.952 33.824 126.8 34.888 129.656 34.888ZM120.192 20.888C120.472 18.256 121.648 17.304 123.384 17.36C124.896 17.36 126.016 18.312 125.792 20.496L125.232 25.816C124.952 28.392 123.776 29.4 122.096 29.344C120.36 29.288 119.408 28.224 119.688 25.648L120.192 20.888ZM143.065 12.208C143.065 23.408 155.105 24.92 155.105 32.984C155.105 35.784 153.873 36.792 151.913 36.792C149.953 36.792 148.721 35.784 148.721 32.984V30.184H142.897V32.592C142.897 38.864 146.033 42.448 152.081 42.448C158.129 42.448 161.265 38.864 161.265 32.592C161.265 21.392 149.225 19.88 149.225 11.816C149.225 9.016 150.345 7.952 152.305 7.952C154.265 7.952 155.385 9.016 155.385 11.816V13.44H161.209V12.208C161.209 5.936 158.129 2.352 152.137 2.352C146.145 2.352 143.065 5.936 143.065 12.208ZM178.459 2.8H169.443L163.171 42H168.827L169.891 34.888H177.451L178.515 42H184.731L178.459 2.8ZM173.643 9.744L176.611 29.568H170.675L173.643 9.744ZM199.585 27.384V32.984C199.585 35.784 198.353 36.792 196.393 36.792C194.433 36.792 193.201 35.784 193.201 32.984V11.816C193.201 9.016 194.433 7.952 196.393 7.952C198.353 7.952 199.585 9.016 199.585 11.816V16.016H205.409V12.208C205.409 5.936 202.273 2.352 196.225 2.352C190.177 2.352 187.041 5.936 187.041 12.208V32.592C187.041 38.864 190.177 42.448 196.225 42.448C202.273 42.448 205.409 38.864 205.409 32.592V27.384H199.585ZM228.298 42C227.682 40.544 227.626 39.144 227.626 37.24V31.192C227.626 27.104 226.618 24.136 223.538 22.848C226.282 21.56 227.57 18.928 227.57 14.896V11.816C227.57 5.768 224.826 2.8 218.442 2.8H209.146V42H215.306V26.04H217.434C220.234 26.04 221.466 27.384 221.466 31.024V37.184C221.466 40.376 221.69 40.992 222.026 42H228.298ZM218.274 8.4C220.458 8.4 221.41 9.632 221.41 12.432V16.296C221.41 19.432 220.01 20.44 217.714 20.44H215.306V8.4H218.274ZM231.678 42H237.838V2.8H231.678V42ZM242.342 42H258.638V36.4H248.502V2.8H242.342V42ZM261.318 42H277.614V36.4H267.478V2.8H261.318V42ZM280.295 36.064V42H286.231V36.064H280.295ZM302.178 27.384V32.984C302.178 35.784 300.946 36.792 298.986 36.792C297.026 36.792 295.794 35.784 295.794 32.984V11.816C295.794 9.016 297.026 7.952 298.986 7.952C300.946 7.952 302.178 9.016 302.178 11.816V16.016H308.002V12.208C308.002 5.936 304.866 2.352 298.818 2.352C292.77 2.352 289.634 5.936 289.634 12.208V32.592C289.634 38.864 292.77 42.448 298.818 42.448C304.866 42.448 308.002 38.864 308.002 32.592V27.384H302.178ZM317.396 11.816C317.396 9.016 318.628 7.952 320.588 7.952C322.548 7.952 323.78 9.016 323.78 11.816V32.984C323.78 35.784 322.548 36.848 320.588 36.848C318.628 36.848 317.396 35.784 317.396 32.984V11.816ZM311.236 32.592C311.236 38.864 314.54 42.448 320.588 42.448C326.636 42.448 329.94 38.864 329.94 32.592V12.208C329.94 5.936 326.636 2.352 320.588 2.352C314.54 2.352 311.236 5.936 311.236 12.208V32.592ZM342.455 2.8H333.887V42H339.263V14.28L343.855 42H349.679L353.935 13.888V42H359.759V2.8H351.191L346.991 30.632L342.455 2.8Z" fill="#333333"/>
<a href="mailto:hello@edston.com">
<rect fill="black" fill-opacity="0" x="0.328125" y="3" width="363.671" height="56"/>
</a>
</svg>
