<svg width="191" height="48" viewBox="0 0 191 48" fill="none" xmlns="http://www.w3.org/2000/svg">
<g filter="url(#filter0_d_260_240)">
<path d="M49.1377 11.8659C49.1377 9.33333 49.7499 7.39665 50.9743 6.05586C52.2292 4.68529 54.0964 4 56.5757 4C59.055 4 60.9069 4.68529 62.1312 6.05586C63.3862 7.39665 64.0137 9.33333 64.0137 11.8659V12.8492H59.2387V11.5531C59.2387 10.4209 59.0091 9.63128 58.55 9.18436C58.1215 8.70763 57.5093 8.46927 56.7135 8.46927C55.9176 8.46927 55.2901 8.70763 54.831 9.18436C54.4025 9.63128 54.1882 10.4209 54.1882 11.5531C54.1882 12.6257 54.4331 13.5791 54.9228 14.4134C55.4126 15.2179 56.0248 15.9926 56.7594 16.7374C57.494 17.4525 58.2745 18.1825 59.101 18.9274C59.958 19.6425 60.7538 20.432 61.4885 21.2961C62.2231 22.1601 62.8352 23.1434 63.325 24.2458C63.8147 25.3482 64.0596 26.6443 64.0596 28.1341C64.0596 30.6667 63.4168 32.6182 62.1312 33.9888C60.8763 35.3296 59.0091 36 56.5298 36C54.0505 36 52.168 35.3296 50.8825 33.9888C49.6275 32.6182 49 30.6667 49 28.1341V26.2123H53.775V28.4469C53.775 29.5791 54.0046 30.3687 54.4637 30.8156C54.9534 31.2626 55.5962 31.486 56.3921 31.486C57.1879 31.486 57.8154 31.2626 58.2745 30.8156C58.7643 30.3687 59.0091 29.5791 59.0091 28.4469C59.0091 27.3743 58.7643 26.4358 58.2745 25.6313C57.7848 24.797 57.1726 24.0223 56.438 23.3073C55.7034 22.5624 54.9075 21.8324 54.0505 21.1173C53.224 20.3724 52.4435 19.568 51.7089 18.7039C50.9743 17.8398 50.3621 16.8566 49.8724 15.7542C49.3826 14.6518 49.1377 13.3557 49.1377 11.8659Z" fill="#333333"/>
<path d="M87.8898 35.6425H82.7934L81.921 29.9665H75.7227L74.8503 35.6425H70.2131L75.3554 4.35754H82.7475L87.8898 35.6425ZM76.3655 25.7207H81.2323L78.7989 9.89944L76.3655 25.7207Z" fill="#333333"/>
<path d="M109.435 23.9777V28.1341C109.435 30.6667 108.792 32.6182 107.506 33.9888C106.251 35.3296 104.384 36 101.905 36C99.4255 36 97.5431 35.3296 96.2575 33.9888C95.0025 32.6182 94.375 30.6667 94.375 28.1341V11.8659C94.375 9.33333 95.0025 7.39665 96.2575 6.05586C97.5431 4.68529 99.4255 4 101.905 4C104.384 4 106.251 4.68529 107.506 6.05586C108.792 7.39665 109.435 9.33333 109.435 11.8659V14.905H104.66V11.5531C104.66 10.4209 104.415 9.63128 103.925 9.18436C103.466 8.70763 102.838 8.46927 102.043 8.46927C101.247 8.46927 100.604 8.70763 100.114 9.18436C99.6551 9.63128 99.4255 10.4209 99.4255 11.5531V28.4469C99.4255 29.5791 99.6551 30.3687 100.114 30.8156C100.604 31.2626 101.247 31.486 102.043 31.486C102.838 31.486 103.466 31.2626 103.925 30.8156C104.415 30.3687 104.66 29.5791 104.66 28.4469V23.9777H109.435Z" fill="#333333"/>
<path d="M127.65 35.6425C127.589 35.4339 127.528 35.2402 127.467 35.0614C127.406 34.8827 127.344 34.6592 127.283 34.3911C127.253 34.1229 127.222 33.7803 127.191 33.3631C127.191 32.946 127.191 32.4246 127.191 31.7989V26.8827C127.191 25.4227 126.931 24.3948 126.411 23.7989C125.89 23.203 125.049 22.905 123.886 22.905H122.141V35.6425H117.09V4.35754H124.712C127.344 4.35754 129.242 4.95344 130.405 6.14525C131.599 7.33706 132.196 9.13966 132.196 11.5531V14.0112C132.196 17.229 131.094 19.3445 128.89 20.3575C130.176 20.8641 131.048 21.6983 131.507 22.8603C131.997 23.9926 132.242 25.378 132.242 27.0168V31.8436C132.242 32.6182 132.272 33.3035 132.334 33.8994C132.395 34.4655 132.548 35.0466 132.793 35.6425H127.65ZM122.141 8.82681V18.4358H124.115C125.064 18.4358 125.799 18.1974 126.319 17.7207C126.87 17.2439 127.145 16.3799 127.145 15.1285V12.0447C127.145 10.9125 126.931 10.0931 126.503 9.58659C126.105 9.08007 125.462 8.82681 124.574 8.82681H122.141Z" fill="#333333"/>
<path d="M140.155 4.35754H145.205V35.6425H140.155V4.35754Z" fill="#333333"/>
<path d="M153.489 4.35754H158.54V31.1732H166.85V35.6425H153.489V4.35754Z" fill="#333333"/>
<path d="M173.639 4.35754H178.69V31.1732H187V35.6425H173.639V4.35754Z" fill="#333333"/>
<path fill-rule="evenodd" clip-rule="evenodd" d="M26.6896 3.84993C27.1507 4.04623 27.45 4.49891 27.45 5.00003V16.6637H34C34.4445 16.6637 34.8556 16.8997 35.0796 17.2837C35.3036 17.6676 35.3069 18.1416 35.0883 18.5286L34.2682 19.98C31.1579 25.4844 27.1915 30.4588 22.5176 34.7163L21.1918 35.9241C20.8258 36.2575 20.2976 36.3435 19.8449 36.1434C19.3921 35.9434 19.1 35.495 19.1 35V23.4353H12.3333C11.643 23.4353 11.0833 22.8756 11.0833 22.1853C11.0833 21.9617 11.142 21.7518 11.2449 21.5702C14.1762 16.1511 17.9291 11.2186 22.3703 6.94827L25.3336 4.09899C25.6948 3.75166 26.2286 3.65363 26.6896 3.84993ZM14.4743 20.9353H20.35C21.0403 20.9353 21.6 21.4949 21.6 22.1853V32.1576C25.631 28.3483 29.0861 23.9711 31.8557 19.1637H26.2C25.5096 19.1637 24.95 18.604 24.95 17.9137V7.93606L24.1031 8.75036C20.3518 12.3574 17.113 16.4574 14.4743 20.9353Z" fill="#333333"/>
</g>
<defs>
<filter id="filter0_d_260_240" x="0" y="0" width="191" height="48" filterUnits="userSpaceOnUse" color-interpolation-filters="sRGB">
<feFlood flood-opacity="0" result="BackgroundImageFix"/>
<feColorMatrix in="SourceAlpha" type="matrix" values="0 0 0 0 0 0 0 0 0 0 0 0 0 0 0 0 0 0 127 0" result="hardAlpha"/>
<feOffset dy="4"/>
<feGaussianBlur stdDeviation="2"/>
<feComposite in2="hardAlpha" operator="out"/>
<feColorMatrix type="matrix" values="0 0 0 0 0 0 0 0 0 0 0 0 0 0 0 0 0 0 0.25 0"/>
<feBlend mode="normal" in2="BackgroundImageFix" result="effect1_dropShadow_260_240"/>
<feBlend mode="normal" in="SourceGraphic" in2="effect1_dropShadow_260_240" result="shape"/>
</filter>
</defs>
</svg>
