<svg width="84" height="16" viewBox="0 0 84 16" fill="none" xmlns="http://www.w3.org/2000/svg">
<path d="M8.57663 1.99748C8.31971 1.55471 7.68031 1.55471 7.42339 1.99748L5.61402 5.11569C5.4871 5.33441 5.26774 5.48367 5.01769 5.52144L1.62682 6.03359C1.0573 6.11961 0.857524 6.83868 1.30106 7.20615L3.82712 9.29896C4.06095 9.49268 4.1709 9.79826 4.11409 10.0966L3.45332 13.5666C3.34886 14.1152 3.92472 14.5414 4.41882 14.2812L7.61176 12.6C7.85478 12.4721 8.14524 12.4721 8.38826 12.6L11.5812 14.2812C12.0753 14.5414 12.6512 14.1152 12.5467 13.5666L11.8859 10.0966C11.8291 9.79826 11.9391 9.49268 12.1729 9.29896L14.699 7.20615C15.1425 6.83868 14.9427 6.11961 14.3732 6.03359L10.9823 5.52144C10.7323 5.48367 10.5129 5.33441 10.386 5.11569L8.57663 1.99748Z" fill="#FFA51E"/>
<path d="M25.5766 1.99748C25.3197 1.55471 24.6803 1.55471 24.4234 1.99748L22.614 5.11569C22.4871 5.33441 22.2677 5.48367 22.0177 5.52144L18.6268 6.03359C18.0573 6.11961 17.8575 6.83868 18.3011 7.20615L20.8271 9.29896C21.0609 9.49268 21.1709 9.79826 21.1141 10.0966L20.4533 13.5666C20.3489 14.1152 20.9247 14.5414 21.4188 14.2812L24.6118 12.6C24.8548 12.4721 25.1452 12.4721 25.3883 12.6L28.5812 14.2812C29.0753 14.5414 29.6512 14.1152 29.5467 13.5666L28.8859 10.0966C28.8291 9.79826 28.9391 9.49268 29.1729 9.29896L31.699 7.20615C32.1425 6.83868 31.9427 6.11961 31.3732 6.03359L27.9823 5.52144C27.7323 5.48367 27.5129 5.33441 27.386 5.11569L25.5766 1.99748Z" fill="#FFA51E"/>
<path d="M42.5766 1.99748C42.3197 1.55471 41.6803 1.55471 41.4234 1.99748L39.614 5.11569C39.4871 5.33441 39.2677 5.48367 39.0177 5.52144L35.6268 6.03359C35.0573 6.11961 34.8575 6.83868 35.3011 7.20615L37.8271 9.29896C38.0609 9.49268 38.1709 9.79826 38.1141 10.0966L37.4533 13.5666C37.3489 14.1152 37.9247 14.5414 38.4188 14.2812L41.6118 12.6C41.8548 12.4721 42.1452 12.4721 42.3883 12.6L45.5812 14.2812C46.0753 14.5414 46.6512 14.1152 46.5467 13.5666L45.8859 10.0966C45.8291 9.79826 45.9391 9.49268 46.1729 9.29896L48.699 7.20615C49.1425 6.83868 48.9427 6.11961 48.3732 6.03359L44.9823 5.52144C44.7323 5.48367 44.5129 5.33441 44.386 5.11569L42.5766 1.99748Z" fill="#FFA51E"/>
<path d="M59.5766 1.99748C59.3197 1.55471 58.6803 1.55471 58.4234 1.99748L56.614 5.11569C56.4871 5.33441 56.2677 5.48367 56.0177 5.52144L52.6268 6.03359C52.0573 6.11961 51.8575 6.83868 52.3011 7.20615L54.8271 9.29896C55.0609 9.49268 55.1709 9.79826 55.1141 10.0966L54.4533 13.5666C54.3489 14.1152 54.9247 14.5414 55.4188 14.2812L58.6118 12.6C58.8548 12.4721 59.1452 12.4721 59.3883 12.6L62.5812 14.2812C63.0753 14.5414 63.6512 14.1152 63.5467 13.5666L62.8859 10.0966C62.8291 9.79826 62.9391 9.49268 63.1729 9.29896L65.699 7.20615C66.1425 6.83868 65.9427 6.11961 65.3732 6.03359L61.9823 5.52144C61.7323 5.48367 61.5129 5.33441 61.386 5.11569L59.5766 1.99748Z" fill="#FFA51E"/>
<path d="M76.5766 1.99748C76.3197 1.55471 75.6803 1.55471 75.4234 1.99748L73.614 5.11569C73.4871 5.33441 73.2677 5.48367 73.0177 5.52144L69.6268 6.03359C69.0573 6.11961 68.8575 6.83868 69.3011 7.20615L71.8271 9.29896C72.0609 9.49268 72.1709 9.79826 72.1141 10.0966L71.4533 13.5666C71.3489 14.1152 71.9247 14.5414 72.4188 14.2812L75.6118 12.6C75.8548 12.4721 76.1452 12.4721 76.3883 12.6L79.5812 14.2812C80.0753 14.5414 80.6512 14.1152 80.5467 13.5666L79.8859 10.0966C79.8291 9.79826 79.9391 9.49268 80.1729 9.29896L82.699 7.20615C83.1425 6.83868 82.9427 6.11961 82.3732 6.03359L78.9823 5.52144C78.7323 5.48367 78.5129 5.33441 78.386 5.11569L76.5766 1.99748Z" fill="#FFA51E"/>
</svg>
