<svg width="96" height="96" viewBox="0 0 96 96" fill="none" xmlns="http://www.w3.org/2000/svg">
<circle cx="48" cy="48" r="47.5" stroke="#E5E5E5"/>
<path d="M46.0607 41.0607C46.6464 40.4749 46.6464 39.5251 46.0607 38.9393C45.4749 38.3536 44.5251 38.3536 43.9393 38.9393L35.9393 46.9393C35.6464 47.2322 35.5 47.6161 35.5 48C35.5 48.2034 35.5405 48.3973 35.6138 48.5742C35.687 48.7511 35.7955 48.9168 35.9393 49.0607L43.9393 57.0607C44.5251 57.6464 45.4749 57.6464 46.0607 57.0607C46.6464 56.4749 46.6464 55.5251 46.0607 54.9393L40.6213 49.5H60C60.8284 49.5 61.5 48.8284 61.5 48C61.5 47.1716 60.8284 46.5 60 46.5H40.6213L46.0607 41.0607Z" fill="#808080"/>
</svg>
